<svg width="50" height="50" viewBox="0 0 50 50" fill="none" xmlns="http://www.w3.org/2000/svg">
<path d="M35.0104 2.08337C33.1767 2.10053 31.3533 2.35972 29.5875 2.85421L29.4625 2.89171C28.3507 2.70106 27.2258 2.5959 26.0979 2.57712C23.7792 2.53754 21.7854 3.08337 20.1813 3.99379C18.5979 3.46046 15.3146 2.54171 11.8542 2.72504C9.44376 2.85212 6.8146 3.56254 4.86668 5.55837C2.92293 7.55421 1.89585 10.6417 2.11251 14.8438C2.17085 16.0042 2.51043 17.8938 3.0771 20.3438C3.6396 22.7917 4.43543 25.6563 5.42501 28.2709C6.4146 30.8855 7.50001 33.2375 9.19585 34.8334C10.0417 35.6334 11.2063 36.3063 12.5792 36.25C13.5438 36.2125 14.4167 35.8021 15.1688 35.1959C15.5354 35.6646 15.9271 35.8688 16.2833 36.0584C16.7313 36.2959 17.1688 36.4584 17.6208 36.5667C18.8728 36.8877 20.1767 36.9522 21.4542 36.7563C22.0104 36.6667 22.5958 36.4917 23.1792 36.2417C23.2 36.8709 23.225 37.4875 23.2521 38.1125C23.3313 40.0917 23.3833 41.9188 23.9958 43.5209C24.0938 43.7834 24.3625 45.1313 25.4271 46.3209C26.4896 47.5125 28.5729 48.2542 30.9438 47.7625C32.6167 47.4146 34.7458 46.7875 36.1583 44.8375C37.5542 42.9084 38.1854 40.1417 38.3104 35.6521C38.3417 35.4105 38.3792 35.2042 38.4188 35.0105L38.7521 35.0396H38.7896C40.575 35.1188 42.5125 34.873 44.1313 34.1438C45.5646 33.498 46.6479 32.848 47.4375 31.6917C47.6354 31.4063 47.8521 31.0605 47.9104 30.4625C47.9688 29.8688 47.6188 28.9355 47.0333 28.5063C45.8604 27.6438 45.125 27.9709 44.3354 28.1313C43.5576 28.298 42.7688 28.3903 41.9688 28.4084C44.2458 24.6917 45.8771 20.7417 46.8083 17.2459C47.3583 15.1834 47.6688 13.2813 47.6938 11.6188C47.7188 9.95629 47.5792 8.48337 46.5521 7.20837C43.3417 3.22921 38.8271 2.12921 35.3354 2.09171C35.2271 2.08893 35.1188 2.08824 35.0104 2.08962V2.08337ZM34.9188 3.30629C38.2208 3.27504 42.4417 4.17504 45.4708 7.93129C46.1521 8.77504 46.3542 10.0084 46.3313 11.5292C46.3063 13.048 46.0167 14.8646 45.4875 16.8563C44.4604 20.7146 42.5188 25.2105 39.7833 29.248C39.8805 29.3153 39.9854 29.3705 40.0958 29.4125C40.6667 29.6417 41.9667 29.8375 44.5646 29.3209C45.2167 29.1855 45.6958 29.0959 46.1917 29.4625C46.3103 29.561 46.4046 29.6856 46.4671 29.8265C46.5296 29.9675 46.5587 30.121 46.5521 30.275C46.5245 30.5077 46.4362 30.729 46.2958 30.9167C45.7958 31.648 44.8042 32.3417 43.5333 32.9125C42.4104 33.4209 40.7979 33.6855 39.3688 33.7021C38.6521 33.7084 37.9917 33.6542 37.4313 33.4855L37.3938 33.473C37.1771 35.4959 36.6792 39.4938 36.3563 41.3167C36.0958 42.7875 35.6417 43.9563 34.7729 44.8313C33.9063 45.7063 32.6813 46.2334 31.0313 46.5771C28.9875 47.0021 27.4979 46.5438 26.5375 45.7584C25.5792 44.9771 25.1396 43.9375 24.875 43.3C24.6938 42.8625 24.6 42.2938 24.5083 41.5334C24.4075 40.623 24.3401 39.7091 24.3063 38.7938C24.2465 37.189 24.227 35.5829 24.2479 33.9771C23.3938 34.7334 22.3313 35.2375 21.1917 35.4271C19.8375 35.65 18.625 35.4313 17.9021 35.2563C17.5477 35.1689 17.205 35.0395 16.8813 34.8709C16.5438 34.698 16.225 34.5021 16.0125 34.1146C15.8873 33.8934 15.8473 33.6341 15.9 33.3855C15.9682 33.1329 16.1194 32.9105 16.3292 32.7542C16.7208 32.4459 17.2354 32.275 18.0125 32.1167C19.4292 31.8355 19.9229 31.6417 20.2229 31.4105C20.4792 31.2125 20.7688 30.8125 21.2813 30.223L21.275 30.1459C20.3617 30.1191 19.4663 29.8854 18.6563 29.4625C18.3625 29.7625 16.8542 31.3105 15.0146 33.4563C14.2417 34.3542 13.3875 34.8688 12.4854 34.9063C11.5833 34.9438 10.7688 34.5021 10.0771 33.8521C8.69168 32.548 7.58751 30.3042 6.62501 27.7688C5.66668 25.2313 4.88335 22.4063 4.32918 20C3.77085 17.5938 3.44168 15.6542 3.39585 14.7188C3.18751 10.7417 4.14585 8.06254 5.79168 6.37296C7.43751 4.68337 9.69168 4.04171 11.8917 3.92087C15.8375 3.70004 19.5854 5.03546 20.3438 5.32296C21.8042 4.36046 23.6854 3.76046 26.0375 3.79796C27.1523 3.81346 28.262 3.95321 29.3458 4.21462L29.3854 4.19796C29.8632 4.03546 30.3479 3.89935 30.8396 3.78962C32.1781 3.48751 33.5446 3.3269 34.9167 3.31046L34.9188 3.30629ZM35.2167 4.58546H34.9313C33.8041 4.60064 32.6809 4.72342 31.5771 4.95212C33.7682 5.90645 35.6933 7.38105 37.1854 9.24796C38.0893 10.3648 38.8391 11.5981 39.4146 12.9146C39.6313 13.4188 39.7771 13.8459 39.8583 14.175C39.9 14.3417 39.9292 14.4813 39.9375 14.6271C39.9452 14.7194 39.9375 14.8124 39.9146 14.9021L39.9021 14.9271C39.9625 16.6 39.5354 17.7334 39.4833 19.3292C39.4438 20.4875 39.7479 21.848 39.8229 23.3292C39.8938 24.725 39.7208 26.2563 38.7875 27.7605C38.8653 27.8521 38.9403 27.9438 39.0125 28.0355C41.4813 24.2646 43.2625 20.0896 44.2104 16.5334C44.7167 14.6167 44.9875 12.8813 45.0104 11.5063C45.0313 10.1313 44.7667 9.13337 44.4292 8.71879C41.7875 5.44171 38.2146 4.60837 35.2167 4.58546ZM25.7896 5.07296C23.4625 5.07712 21.7917 5.76046 20.5271 6.78129C19.2208 7.83754 18.3458 9.28129 17.7708 10.7625C17.2143 12.2428 16.874 13.7956 16.7604 15.373L16.7875 15.3584C17.4896 14.975 18.4125 14.5938 19.4 14.373C20.3896 14.1521 21.4542 14.0834 22.4188 14.4459C23.3833 14.8084 24.1813 15.6625 24.4708 16.9584C25.8563 23.1792 24.0396 25.4917 23.3688 27.2355C23.1171 27.8683 22.9001 28.5144 22.7188 29.1709C22.8021 29.1473 22.8861 29.1306 22.9708 29.1209C23.3368 29.1011 23.702 29.1727 24.0333 29.3292C24.7083 29.6 25.1708 30.1667 25.4208 30.8167C25.4861 30.9889 25.5327 31.1695 25.5604 31.3584C25.5882 31.4375 25.6014 31.5188 25.6 31.6021C25.5251 33.9809 25.5335 36.3615 25.625 38.7396C25.6708 39.7688 25.7375 40.673 25.8229 41.3875C25.9063 42.1 26.0271 42.6417 26.1042 42.825C26.3542 43.4375 26.7229 44.2375 27.3896 44.7813C28.0563 45.325 29.0083 45.6855 30.7521 45.323C32.2646 45.0084 33.1979 44.573 33.8229 43.9417C34.4438 43.3146 34.8167 42.4417 35.0542 41.1021C35.4104 39.0959 36.1271 33.2813 36.2125 32.1855C36.175 31.3625 36.3 30.7271 36.5708 30.2438C36.8521 29.748 37.2854 29.4438 37.6583 29.2792C37.8458 29.1959 38.0208 29.1417 38.1646 29.1021C38.0114 28.8902 37.8516 28.6832 37.6854 28.4813C37.1467 27.8511 36.705 27.144 36.375 26.3834C36.216 26.0705 36.0472 25.7627 35.8688 25.4605C35.6083 25.0021 35.2771 24.4292 34.9313 23.7855C34.2375 22.4959 33.4833 20.9334 33.0917 19.4105C32.7021 17.8917 32.6438 16.3188 33.6438 15.2084C34.5313 14.223 36.0854 13.8146 38.4208 14.0438C38.3521 13.8438 38.3104 13.6771 38.1938 13.4105C37.6667 12.2 36.9778 11.0668 36.1458 10.0417C34.1667 7.58754 30.9646 5.15421 26.0146 5.07504H25.7896V5.07296ZM12.7146 5.17087C12.4646 5.17087 12.2146 5.17782 11.9646 5.19171C9.9771 5.30212 8.09793 5.86254 6.75418 7.24587C5.40626 8.62712 4.52085 10.8938 4.71251 14.648C4.7521 15.3563 5.07085 17.348 5.61668 19.7105C6.16251 22.0771 6.93751 24.8584 7.86668 27.3146C8.79585 29.773 9.92501 31.9125 10.9958 32.925C11.5354 33.4313 12.0042 33.6355 12.4292 33.6188C12.8563 33.598 13.3688 33.3605 13.9979 32.6292C15.1437 31.2884 16.3318 29.9842 17.5604 28.7188C16.6924 27.9909 16.0241 27.0537 15.6188 25.9959C15.2167 24.9481 15.0946 23.8136 15.2646 22.7042C15.4667 21.2917 15.4938 19.9709 15.4708 18.9292C15.4458 17.9125 15.3708 17.2375 15.3708 16.8146V16.7563C15.3687 14.5545 15.7632 12.3703 16.5354 10.3084C17.0854 8.88754 17.9063 7.44379 19.1375 6.27504C17.9292 5.88962 15.7833 5.30212 13.4604 5.19171C13.2106 5.17833 12.9606 5.17139 12.7104 5.17087H12.7146ZM37.1188 15.2584C35.7833 15.275 35.0333 15.6105 34.6396 16.048C34.0813 16.6688 34.0292 17.7563 34.375 19.098C34.7208 20.4396 35.4313 21.9417 36.1021 23.1875C36.4354 23.8125 36.7604 24.375 37.0229 24.8292C37.2875 25.2875 37.4813 25.6125 37.5979 25.8917C37.709 26.1431 37.8257 26.373 37.9479 26.5813C38.4646 25.5209 38.5583 24.4813 38.5042 23.3959C38.4354 22.0542 38.1146 20.6813 38.1625 19.2917C38.2146 17.6667 38.5458 16.6063 38.575 15.35C38.0918 15.2912 37.6055 15.2605 37.1188 15.2584ZM20.9104 15.4771C20.5023 15.4802 20.0958 15.5277 19.6979 15.6188C18.907 15.8053 18.1436 16.0938 17.4271 16.4771C17.1868 16.6021 16.9577 16.7473 16.7396 16.9125L16.6979 16.95C16.7104 17.2292 16.7667 17.9063 16.7917 18.9C16.8125 19.9896 16.7875 21.3792 16.5708 22.8792C16.1 26.1459 18.5417 28.85 21.4125 28.8542C21.5792 28.1834 21.8563 27.5042 22.1313 26.7875C22.9313 24.698 24.5042 23.175 23.1792 17.2271C22.9625 16.2542 22.5333 15.8605 21.9417 15.6375C21.6104 15.5225 21.261 15.4682 20.9104 15.4771ZM36.4938 15.8667H36.5938C36.7243 15.8709 36.8424 15.8848 36.9479 15.9084C37.0437 15.9276 37.1354 15.9636 37.2188 16.0146C37.2567 16.037 37.2895 16.0671 37.315 16.103C37.3405 16.1389 37.3581 16.1798 37.3667 16.223V16.2396C37.3721 16.3312 37.3472 16.422 37.2958 16.498C37.2377 16.603 37.1647 16.6991 37.0792 16.7834C36.8773 16.9976 36.6111 17.1402 36.3208 17.1896C36.0363 17.2233 35.7493 17.153 35.5125 16.9917C35.4172 16.9288 35.331 16.8531 35.2563 16.7667C35.1931 16.6993 35.1498 16.6156 35.1313 16.525C35.1267 16.4805 35.1318 16.4355 35.1462 16.3931C35.1606 16.3506 35.1839 16.3118 35.2146 16.2792C35.2812 16.2093 35.3594 16.1515 35.4458 16.1084C35.7758 15.9569 36.1329 15.8733 36.4958 15.8625L36.4938 15.8667ZM21.1021 16.1875C21.2063 16.1875 21.3153 16.1959 21.4292 16.2125C21.7292 16.2542 21.9979 16.3313 22.2021 16.4459C22.3021 16.4973 22.3896 16.5646 22.4646 16.648C22.5035 16.6938 22.5327 16.7445 22.5521 16.8C22.5715 16.8556 22.5778 16.9132 22.5708 16.973C22.5519 17.0834 22.5004 17.1857 22.4229 17.2667C22.3423 17.3638 22.2475 17.448 22.1417 17.5167C21.883 17.6929 21.5691 17.7692 21.2583 17.7313C20.9431 17.6804 20.6533 17.5274 20.4333 17.2959C20.3419 17.2026 20.2634 17.0975 20.2 16.9834C20.1351 16.8835 20.1065 16.7644 20.1188 16.6459C20.1479 16.4375 20.325 16.3334 20.4938 16.2709C20.6888 16.209 20.8936 16.1836 21.0979 16.1959L21.1021 16.1875ZM38.9354 30.2125H38.9292C38.6396 30.3167 38.4021 30.3584 38.2 30.4417C37.9987 30.5164 37.8319 30.6624 37.7313 30.8521C37.6063 31.0709 37.5021 31.4605 37.5333 32.123C37.6231 32.1822 37.7215 32.2272 37.825 32.2563C38.1604 32.3563 38.725 32.423 39.3563 32.4125C40.6104 32.398 42.1563 32.1146 42.9771 31.7438C43.65 31.4396 44.275 31.0438 44.8333 30.5688C42.0896 31.1188 40.5417 30.973 39.5896 30.5917C39.3548 30.4959 39.1346 30.3696 38.9354 30.2125ZM23.1271 30.3896H23.0854C22.9813 30.398 22.8292 30.4313 22.5375 30.748C21.85 31.4938 21.6125 31.9605 21.0458 32.398C20.4833 32.8355 19.7479 33.0667 18.2813 33.3584C17.8167 33.45 17.5521 33.5521 17.3729 33.6334C17.4313 33.6792 17.425 33.6917 17.5104 33.7355C17.725 33.85 18.0021 33.95 18.2229 34.0063C18.8542 34.1584 19.8896 34.3375 20.9708 34.1584C22.0521 33.9792 23.175 33.4771 24.1333 32.173C24.3 31.948 24.3167 31.6146 24.1813 31.2563C24.0417 30.9021 23.7417 30.5938 23.5292 30.5063C23.4024 30.4465 23.2665 30.4085 23.1271 30.3938V30.3896Z" fill="white"/>
</svg>
