<svg width="50" height="50" viewBox="0 0 50 50" fill="none" xmlns="http://www.w3.org/2000/svg">
<g clip-path="url(#clip0_231_17)">
<mask id="mask0_231_17" style="mask-type:luminance" maskUnits="userSpaceOnUse" x="0" y="0" width="50" height="50">
<path d="M0 0H50V50H0V0Z" fill="white"/>
</mask>
<g mask="url(#mask0_231_17)">
<path d="M48.8104 7.31061e-06H1.1875C1.03138 7.07035e-06 0.876794 0.0307916 0.732583 0.0905993C0.588373 0.150407 0.457372 0.238064 0.347075 0.348554C0.236778 0.459045 0.149351 0.5902 0.0897962 0.734514C0.0302414 0.878829 -0.000272064 1.03347 1.83087e-06 1.18959V48.8125C-0.000272613 48.9688 0.0303096 49.1236 0.0899945 49.2681C0.149679 49.4125 0.237293 49.5438 0.347811 49.6543C0.458328 49.7648 0.589576 49.8524 0.734027 49.9121C0.878478 49.9718 1.03329 50.0024 1.18959 50.0021H48.8125C48.9688 50.0024 49.1236 49.9718 49.2681 49.9121C49.4125 49.8524 49.5438 49.7648 49.6543 49.6543C49.7648 49.5438 49.8524 49.4125 49.9121 49.2681C49.9718 49.1236 50.0024 48.9688 50.0021 48.8125V1.18751C50.0021 1.03121 49.9712 0.876453 49.9113 0.732106C49.8514 0.58776 49.7635 0.456666 49.6528 0.346341C49.5421 0.236017 49.4107 0.148634 49.2661 0.0892017C49.1216 0.0297698 48.9667 -0.000541096 48.8104 7.31061e-06ZM29.7625 26.7208H23.8104V45.2375H19.0479V26.7208H13.0958V22.6188H29.7625V26.7208ZM31.0958 44.1792V39.2313C31.0958 39.2313 33.8 41.2688 37.0437 41.2688C40.2875 41.2688 40.1625 39.1479 40.1625 38.8563C40.1625 35.7792 30.9708 35.7792 30.9708 28.9583C30.9708 19.6833 44.3646 23.3438 44.3646 23.3438L44.1979 27.7521C44.1979 27.7521 41.9521 26.2542 39.4146 26.2542C36.8771 26.2542 35.9625 27.4625 35.9625 28.75C35.9625 32.0771 45.2375 31.7458 45.2375 38.4417C45.2375 48.7542 31.0958 44.1813 31.0958 44.1813" fill="white"/>
</g>
</g>
<defs>
<clipPath id="clip0_231_17">
<rect width="50" height="50" fill="white"/>
</clipPath>
</defs>
</svg>
