<svg width="50" height="40" viewBox="0 0 50 40" fill="none" xmlns="http://www.w3.org/2000/svg">
<path d="M24.7109 35.3125C24.5469 35.3125 24.3828 35.2656 24.2344 35.1875L22.7344 34.2968C22.5078 34.1718 22.6172 34.125 22.6953 34.1015C22.9922 34 23.0547 33.9765 23.375 33.789C23.4063 33.7734 23.4531 33.7812 23.4844 33.7968L24.6406 34.4843C24.6797 34.5078 24.7422 34.5078 24.7813 34.4843L29.2969 31.875C29.3359 31.8515 29.3672 31.8047 29.3672 31.75V26.539C29.3672 26.4843 29.3438 26.4375 29.2969 26.414L24.7813 23.8125C24.7422 23.789 24.6875 23.789 24.6406 23.8125L20.125 26.414C20.0781 26.4375 20.0547 26.4922 20.0547 26.539V31.75C20.0547 31.7968 20.0859 31.8437 20.125 31.8672L21.3594 32.5781C22.0312 32.914 22.4453 32.5156 22.4453 32.125V26.9765C22.4453 26.9062 22.5 26.8437 22.5781 26.8437H23.1484C23.2187 26.8437 23.2812 26.8984 23.2812 26.9765V32.125C23.2812 33.0234 22.7969 33.5312 21.9453 33.5312C21.6875 33.5312 21.4766 33.5312 20.9063 33.25L19.7187 32.5703C19.4297 32.3984 19.2422 32.0859 19.2422 31.75V26.539C19.2422 26.2031 19.4219 25.8828 19.7187 25.7187L24.2344 23.1093C24.5234 22.9453 24.8984 22.9453 25.1797 23.1093L29.6953 25.7187C29.9844 25.8906 30.1719 26.2031 30.1719 26.539V31.75C30.1719 32.0859 29.9922 32.4062 29.6953 32.5703L25.1797 35.1797C25.0469 35.2656 24.8828 35.3125 24.7109 35.3125ZM28.3594 30.1718C28.3594 29.1953 27.7031 28.9375 26.3125 28.75C24.9062 28.5625 24.7656 28.4687 24.7656 28.1406C24.7656 27.8672 24.8828 27.5078 25.9219 27.5078C26.8516 27.5078 27.1953 27.7109 27.3359 28.3359C27.3516 28.3984 27.3984 28.4375 27.4609 28.4375H28.0469C28.0859 28.4375 28.1172 28.4218 28.1406 28.3984C28.1641 28.3672 28.1797 28.3359 28.1719 28.2968C28.0781 27.2187 27.3672 26.7187 25.9219 26.7187C24.6328 26.7187 23.8672 27.2656 23.8672 28.1718C23.8672 29.164 24.6328 29.4297 25.8672 29.5547C27.3438 29.7031 27.4609 29.914 27.4609 30.2031C27.4609 30.7109 27.0547 30.9218 26.1016 30.9218C24.9063 30.9218 24.6406 30.625 24.5547 30.0312C24.5469 29.9687 24.4922 29.9218 24.4219 29.9218H23.8359C23.7656 29.9218 23.7031 29.9765 23.7031 30.0547C23.7031 30.8125 24.1172 31.7187 26.0938 31.7187C27.5391 31.7187 28.3594 31.1562 28.3594 30.1718ZM32.6172 26.2578C32.6172 26.7343 32.2266 27.125 31.75 27.125C31.2734 27.125 30.8828 26.7343 30.8828 26.2578C30.8828 25.7656 31.2891 25.3906 31.75 25.3906C32.2187 25.3828 32.6172 25.7656 32.6172 26.2578ZM32.4766 26.2578C32.4766 25.8515 32.1484 25.5312 31.7422 25.5312C31.3437 25.5312 31.0156 25.8515 31.0156 26.2578C31.0156 26.664 31.3437 26.9922 31.7422 26.9922C32.1484 26.9843 32.4766 26.6562 32.4766 26.2578ZM32.125 26.7422H31.9219C31.9141 26.6953 31.8828 26.4453 31.8828 26.4375C31.8672 26.3828 31.8516 26.3515 31.7812 26.3515H31.6094V26.7422H31.4219V25.7656H31.7578C31.875 25.7656 32.1016 25.7656 32.1016 26.0234C32.1016 26.2031 31.9844 26.2422 31.9141 26.2656C32.0469 26.2734 32.0547 26.3593 32.0781 26.4843C32.0859 26.5625 32.1016 26.6953 32.125 26.7422ZM31.9062 26.0547C31.9062 25.9218 31.8125 25.9218 31.7656 25.9218H31.6094V26.1953H31.7578C31.8828 26.1953 31.9062 26.1093 31.9062 26.0547ZM10.7266 14.9218C10.7266 14.7109 10.6172 14.5234 10.4375 14.4218L5.64844 11.664C5.57031 11.6172 5.47656 11.5937 5.38281 11.5859H5.33594C5.24219 11.5859 5.15625 11.6172 5.07031 11.664L0.289063 14.4218C0.109375 14.5234 0 14.7187 0 14.9218L0.0078125 22.3437C0.0078125 22.4453 0.0625 22.539 0.148437 22.5937C0.234375 22.6484 0.34375 22.6484 0.4375 22.5937L3.28125 20.9609C3.46094 20.8515 3.57031 20.664 3.57031 20.4609V16.9922C3.57031 16.789 3.67969 16.5937 3.85938 16.4922L5.07031 15.7968C5.16406 15.7422 5.25781 15.7187 5.35937 15.7187C5.46094 15.7187 5.5625 15.7422 5.64844 15.7968L6.85938 16.4922C7.03906 16.5937 7.14844 16.789 7.14844 16.9922V20.4609C7.14844 20.664 7.25781 20.8593 7.4375 20.9609L10.2813 22.5937C10.3672 22.6484 10.4844 22.6484 10.5703 22.5937C10.6563 22.5468 10.7109 22.4453 10.7109 22.3437L10.7266 14.9218ZM36.9141 6.82028V20.6015C36.9141 20.8047 36.8047 21 36.625 21.1015L31.8359 23.8672C31.6563 23.9687 31.4375 23.9687 31.2578 23.8672L26.4687 21.1015C26.2891 21 26.1797 20.8047 26.1797 20.6015V15.0703C26.1797 14.8672 26.2891 14.6718 26.4687 14.5703L31.2578 11.8047C31.4375 11.7031 31.6563 11.7031 31.8359 11.8047L33.0312 12.4922C33.1641 12.5703 33.3359 12.4687 33.3359 12.3203V4.97653C33.3359 4.75778 33.5703 4.61715 33.7656 4.72653L36.6172 6.32028C36.7969 6.41403 36.9141 6.60934 36.9141 6.82028ZM33.3203 16.8906C33.3203 16.8359 33.2891 16.789 33.25 16.7656L31.6094 15.8125C31.5625 15.789 31.5078 15.789 31.4609 15.8125L29.8203 16.7656C29.7734 16.789 29.75 16.8359 29.75 16.8906V18.789C29.75 18.8437 29.7813 18.8906 29.8203 18.914L31.4609 19.8593C31.5078 19.8828 31.5625 19.8828 31.6016 19.8593L33.2422 18.914C33.2891 18.8906 33.3125 18.8437 33.3125 18.789V16.8906H33.3203ZM49.7109 16.8359C49.8906 16.7343 50 16.539 50 16.3359V15C50 14.7968 49.8906 14.6015 49.7109 14.5L44.9531 11.7343C44.7734 11.6328 44.5547 11.6328 44.375 11.7343L39.5859 14.5C39.4063 14.6015 39.2969 14.7968 39.2969 15V20.5312C39.2969 20.7422 39.4063 20.9297 39.5859 21.0312L44.3437 23.7422C44.5156 23.8437 44.7344 23.8437 44.9141 23.7422L47.7891 22.1406C47.9844 22.0312 47.9844 21.75 47.7891 21.6406L42.9688 18.875C42.875 18.8203 42.8203 18.7265 42.8203 18.625V16.8906C42.8203 16.789 42.875 16.6953 42.9688 16.6406L44.4688 15.7734C44.5547 15.7187 44.6719 15.7187 44.7578 15.7734L46.2578 16.6406C46.3437 16.6953 46.4062 16.789 46.4062 16.8906V18.25C46.4062 18.4687 46.6484 18.6093 46.8437 18.5L49.7109 16.8359ZM43.6719 17.1093C43.6406 17.1328 43.6172 17.164 43.6172 17.2031V18.2656C43.6172 18.3047 43.6406 18.3437 43.6719 18.3593L44.5937 18.8906C44.625 18.914 44.6719 18.914 44.7031 18.8906L45.625 18.3593C45.6563 18.3359 45.6797 18.3047 45.6797 18.2656V17.2031C45.6797 17.164 45.6563 17.125 45.625 17.1093L44.7031 16.5781C44.6719 16.5547 44.625 16.5547 44.5937 16.5781L43.6719 17.1093ZM23.8125 20.5078V15.0078C23.8125 14.8047 23.6875 14.6093 23.5078 14.5078L18.7344 11.7578C18.5703 11.664 18.3437 11.6484 18.1562 11.7578L13.3828 14.5078C13.2031 14.6093 13.0781 14.7968 13.0781 15.0078V20.5078C13.0781 20.7265 13.2266 20.914 13.3906 21.0078L18.1719 23.7578C18.3594 23.8672 18.5781 23.8593 18.75 23.7578L23.5156 21.0078C23.6562 20.9297 23.7578 20.7968 23.7969 20.6406C23.8047 20.6015 23.8125 20.5547 23.8125 20.5078ZM18.0078 10.75L17.9453 10.789H18.0313L18.0078 10.75ZM23.9609 20.9218L23.9297 20.8672V20.9375L23.9609 20.9218Z" fill="white"/>
</svg>
