<svg width="50" height="50" viewBox="0 0 50 50" fill="none" xmlns="http://www.w3.org/2000/svg">
<path d="M25.0003 4.16663C13.5212 4.16663 4.16699 13.5208 4.16699 25C4.16699 36.4791 13.5212 45.8333 25.0003 45.8333C36.4795 45.8333 45.8337 36.4791 45.8337 25C45.8337 13.5208 36.4795 4.16663 25.0003 4.16663ZM6.27116 25C6.27116 22.2916 6.85449 19.7083 7.89616 17.375L16.8337 41.8541C10.5837 38.8125 6.27116 32.4166 6.27116 25ZM25.0003 43.7291C23.167 43.7291 21.3962 43.4583 19.7087 42.9583L25.3337 26.625L31.0837 42.3958C31.1253 42.4791 31.167 42.5833 31.2087 42.6458C29.2712 43.3541 27.1878 43.7291 25.0003 43.7291ZM27.5837 16.2083C28.7087 16.1458 29.7295 16.0208 29.7295 16.0208C30.7295 15.8958 30.6253 14.4166 29.6045 14.4791C29.6045 14.4791 26.5628 14.7083 24.6045 14.7083C22.7712 14.7083 19.667 14.4791 19.667 14.4791C18.667 14.4375 18.542 15.9791 19.5628 16.0416C19.5628 16.0416 20.5212 16.1666 21.5212 16.2291L24.4378 24.2291L20.3337 36.5208L13.5212 16.2083C14.6462 16.1666 15.667 16.0416 15.667 16.0416C16.667 15.9166 16.5628 14.4375 15.542 14.5C15.542 14.5 12.5003 14.7291 10.542 14.7291C10.1878 14.7291 9.77116 14.7291 9.33366 14.7083C12.7087 9.62496 18.4587 6.27079 25.0003 6.27079C29.8753 6.27079 34.3128 8.12496 37.6462 11.1875C37.5628 11.1875 37.4795 11.1666 37.3962 11.1666C35.5628 11.1666 34.2503 12.7708 34.2503 14.5C34.2503 16.0416 35.1462 17.3541 36.0837 18.8958C36.792 20.1458 37.6253 21.75 37.6253 24.0625C37.6253 25.6666 37.0003 27.5208 36.2087 30.125L34.3337 36.375L27.5837 16.2083ZM41.4378 16.0208C43.7768 20.3036 44.3518 25.3302 43.0405 30.0305C41.7292 34.7309 38.6352 38.7339 34.417 41.1875L40.1462 24.6458C41.2087 21.9791 41.5628 19.8333 41.5628 17.9375C41.5628 17.25 41.5212 16.6041 41.4378 16.0208Z" fill="white"/>
</svg>
