<svg width="50" height="50" viewBox="0 0 50 50" fill="none" xmlns="http://www.w3.org/2000/svg">
<path fill-rule="evenodd" clip-rule="evenodd" d="M42.5463 36.1188C40.2797 36.0563 38.5213 36.2875 37.0463 36.9084C36.6234 37.0792 35.9422 37.0792 35.8859 37.6125C36.1151 37.8375 36.1401 38.2042 36.3401 38.5146C36.6797 39.0771 37.2755 39.8375 37.813 40.2313L39.6255 41.5271C40.7317 42.2042 41.9797 42.5979 43.0567 43.2729C43.6797 43.6688 44.3026 44.175 44.9276 44.5979C45.2442 44.8229 45.4359 45.1896 45.8338 45.3313V45.2459C45.6359 44.9917 45.5776 44.6271 45.3817 44.3438L44.5297 43.5271C43.6993 42.433 42.705 41.4738 41.5817 40.6834C40.6755 40.0625 38.6922 39.2188 38.3234 38.1771L38.2672 38.1146C38.8901 38.0521 39.6276 37.8313 40.2234 37.6625C41.188 37.4104 42.0651 37.4646 43.0567 37.2125L44.4172 36.8167V36.5667C43.9067 36.0584 43.538 35.3813 43.0005 34.9042C41.5336 33.6299 39.9698 32.4716 38.3234 31.4396C37.4442 30.8771 36.3109 30.5084 35.3755 30.0313C35.0338 29.8625 34.4692 29.7771 34.2713 29.4959C33.7588 28.8771 33.4776 28.0584 33.1088 27.3271L30.7838 22.425C30.2734 21.3271 29.9609 20.2292 29.338 19.2167C26.4213 14.425 23.2442 11.525 18.3692 8.6792C17.3213 8.08753 16.0755 7.83337 14.7484 7.52503L12.6234 7.41045C12.1692 7.21462 11.7151 6.6792 11.3192 6.42503C9.70465 5.41045 5.53799 3.21462 4.34632 6.11045C3.57965 7.93962 5.47965 9.7417 6.12549 10.673C6.60674 11.3188 7.22965 12.0521 7.57132 12.7855C7.7609 13.2646 7.82549 13.7709 8.0234 14.2771C8.47757 15.5167 8.90257 16.8979 9.4984 18.0521C9.81507 18.6438 10.1484 19.2646 10.5463 19.8C10.7734 20.1146 11.1713 20.25 11.2547 20.7584C10.8588 21.3209 10.8297 22.1646 10.6026 22.8709C9.58174 26.0542 9.97757 29.9959 11.4255 32.3396C11.8797 33.0438 12.9484 34.5938 14.4005 34.0021C15.6776 33.4938 15.3922 31.8896 15.7609 30.4813C15.8463 30.1438 15.7901 29.9188 15.9588 29.6917V29.7542L17.1213 32.0938C18.0005 33.4729 19.5317 34.9104 20.8067 35.8688C21.4859 36.375 22.0234 37.2479 22.8734 37.5563V37.4729H22.8192C22.6484 37.2209 22.3922 37.1063 22.1651 36.9104C21.6288 36.3876 21.1362 35.8218 20.6922 35.2188C19.4941 33.6015 18.4328 31.8872 17.5192 30.0938C17.0651 29.2188 16.6672 28.2625 16.3005 27.3896C16.1276 27.0521 16.1276 26.5438 15.8463 26.375C15.4192 26.9938 14.7984 27.5313 14.4838 28.2917C13.9463 29.5 13.8901 30.9938 13.6922 32.5438C13.5776 32.5729 13.6297 32.5438 13.5776 32.6063C12.6713 32.3834 12.3588 31.4521 12.0192 30.6646C11.1692 28.6646 11.0276 25.4542 11.763 23.1438C11.963 22.5521 12.813 20.6917 12.4734 20.1292C12.3026 19.5938 11.7359 19.2854 11.4234 18.8625C11.0294 18.2939 10.6878 17.6907 10.4026 17.0605C9.72549 15.4813 9.38382 13.7354 8.64632 12.1584C8.30674 11.425 7.7109 10.6646 7.22965 9.98962C6.69007 9.2292 6.09632 8.69378 5.67132 7.7917C5.52965 7.47712 5.33174 6.97503 5.55882 6.63753C5.61299 6.41253 5.72757 6.32087 5.95465 6.27087C6.32132 5.95628 7.37132 6.3542 7.74007 6.52295C8.78799 6.94587 9.66715 7.33962 10.5463 7.93128C10.9422 8.21253 11.3672 8.74795 11.8797 8.88962H12.4734C13.3817 9.08753 14.4005 8.95212 15.2505 9.20628C16.7505 9.68545 18.113 10.3875 19.3338 11.15C23.0835 13.5199 26.1351 16.8447 28.1755 20.7834C28.5151 21.4313 28.6547 22.0229 28.9672 22.7C29.5651 24.0792 30.3005 25.4875 30.8963 26.8396C31.4922 28.1646 32.0588 29.5167 32.9088 30.6146C33.3338 31.2063 35.0338 31.5167 35.7984 31.8271C36.3651 32.0771 37.2442 32.3063 37.7567 32.6146C38.7172 33.2063 39.6817 33.8834 40.588 34.5313C41.0401 34.8688 42.4588 35.5729 42.5442 36.1354L42.5463 36.1188ZM13.6422 11.6417C13.2509 11.6392 12.8609 11.6868 12.4817 11.7834V11.8459H12.538C12.7651 12.2959 13.163 12.6063 13.4442 13.0021L14.0963 14.3542L14.1526 14.2917C14.5484 14.0084 14.7484 13.5584 14.7484 12.8834C14.5776 12.6854 14.5505 12.4875 14.4088 12.2917C14.238 12.0105 13.8692 11.8688 13.6422 11.6438" fill="white"/>
</svg>
