<svg width="50" height="50" viewBox="0 0 50 50" fill="none" xmlns="http://www.w3.org/2000/svg">
<path d="M25.0003 4.16663C22.2645 4.16663 19.5554 4.7055 17.0278 5.75247C14.5001 6.79944 12.2035 8.33401 10.2689 10.2686C6.36193 14.1756 4.16699 19.4746 4.16699 25C4.16699 34.2083 10.1462 42.0208 18.417 44.7916C19.4587 44.9583 19.792 44.3125 19.792 43.75V40.2291C14.0212 41.4791 12.792 37.4375 12.792 37.4375C11.8337 35.0208 10.4795 34.375 10.4795 34.375C8.58366 33.0833 10.6253 33.125 10.6253 33.125C12.7087 33.2708 13.8128 35.2708 13.8128 35.2708C15.6253 38.4375 18.6878 37.5 19.8753 37C20.0628 35.6458 20.6045 34.7291 21.1878 34.2083C16.5628 33.6875 11.7087 31.8958 11.7087 23.9583C11.7087 21.6458 12.5003 19.7916 13.8545 18.3125C13.6462 17.7916 12.917 15.625 14.0628 12.8125C14.0628 12.8125 15.8128 12.25 19.792 14.9375C21.4378 14.4791 23.2295 14.25 25.0003 14.25C26.7712 14.25 28.5628 14.4791 30.2087 14.9375C34.1878 12.25 35.9378 12.8125 35.9378 12.8125C37.0837 15.625 36.3545 17.7916 36.1462 18.3125C37.5003 19.7916 38.292 21.6458 38.292 23.9583C38.292 31.9166 33.417 33.6666 28.7712 34.1875C29.5212 34.8333 30.2087 36.1041 30.2087 38.0416V43.75C30.2087 44.3125 30.542 44.9791 31.6045 44.7916C39.8753 42 45.8337 34.2083 45.8337 25C45.8337 22.2641 45.2948 19.555 44.2478 17.0274C43.2008 14.4998 41.6663 12.2031 39.7317 10.2686C37.7972 8.33401 35.5005 6.79944 32.9729 5.75247C30.4453 4.7055 27.7362 4.16663 25.0003 4.16663Z" fill="white"/>
</svg>
