<svg width="50" height="50" viewBox="0 0 50 50" fill="none" xmlns="http://www.w3.org/2000/svg">
<path d="M25.0003 21.0625C27.1462 21.0625 28.8962 22.8125 28.8962 25C28.8962 27.0833 27.1462 28.8541 25.0003 28.8541C22.8545 28.8541 21.1045 27.0833 21.1045 25C21.1045 22.8125 22.8545 21.0625 25.0003 21.0625ZM15.3545 41.6666C16.667 42.4583 19.542 41.25 22.8545 38.125C21.7712 36.8958 20.7087 35.5625 19.7087 34.1666C18.03 34.0048 16.361 33.7545 14.7087 33.4166C13.6462 37.875 14.042 40.9375 15.3545 41.6666ZM16.8337 29.7083L16.2295 28.6458C16.0003 29.25 15.7712 29.8541 15.6253 30.4375C16.1878 30.5625 16.8128 30.6666 17.4587 30.7708L16.8337 29.7083ZM30.4587 28.125L32.1462 25L30.4587 21.875C29.8337 20.7708 29.167 19.7916 28.5628 18.8125C27.4378 18.75 26.2503 18.75 25.0003 18.75C23.7503 18.75 22.5628 18.75 21.4378 18.8125C20.8337 19.7916 20.167 20.7708 19.542 21.875L17.8545 25L19.542 28.125C20.167 29.2291 20.8337 30.2083 21.4378 31.1875C22.5628 31.25 23.7503 31.25 25.0003 31.25C26.2503 31.25 27.4378 31.25 28.5628 31.1875C29.167 30.2083 29.8337 29.2291 30.4587 28.125ZM25.0003 14.125C24.6045 14.5833 24.1878 15.0625 23.7712 15.625H26.2295C25.8128 15.0625 25.3962 14.5833 25.0003 14.125ZM25.0003 35.875C25.3962 35.4166 25.8128 34.9375 26.2295 34.375H23.7712C24.1878 34.9375 24.6045 35.4166 25.0003 35.875ZM34.6253 8.3333C33.3337 7.54163 30.4587 8.74996 27.1462 11.875C28.2295 13.1041 29.292 14.4375 30.292 15.8333C32.0003 16 33.6878 16.25 35.292 16.5833C36.3545 12.125 35.9587 9.06246 34.6253 8.3333ZM33.167 20.2916L33.7712 21.3541C34.0003 20.75 34.2295 20.1458 34.3753 19.5625C33.8128 19.4375 33.1878 19.3333 32.542 19.2291L33.167 20.2916ZM36.1878 5.60413C39.2503 7.35413 39.5837 11.9583 38.292 17.3333C43.5837 18.8958 47.3962 21.4791 47.3962 25C47.3962 28.5208 43.5837 31.1041 38.292 32.6666C39.5837 38.0416 39.2503 42.6458 36.1878 44.3958C33.1462 46.1458 29.0003 44.1458 25.0003 40.3333C21.0003 44.1458 16.8545 46.1458 13.792 44.3958C10.7503 42.6458 10.417 38.0416 11.7087 32.6666C6.41699 31.1041 2.60449 28.5208 2.60449 25C2.60449 21.4791 6.41699 18.8958 11.7087 17.3333C10.417 11.9583 10.7503 7.35413 13.792 5.60413C16.8545 3.85413 21.0003 5.85413 25.0003 9.66663C29.0003 5.85413 33.1462 3.85413 36.1878 5.60413ZM35.5837 25C36.292 26.5625 36.917 28.125 37.4378 29.7083C41.8128 28.3958 44.2712 26.5208 44.2712 25C44.2712 23.4791 41.8128 21.6041 37.4378 20.2916C36.917 21.875 36.292 23.4375 35.5837 25ZM14.417 25C13.7087 23.4375 13.0837 21.875 12.5628 20.2916C8.18783 21.6041 5.72949 23.4791 5.72949 25C5.72949 26.5208 8.18783 28.3958 12.5628 29.7083C13.0837 28.125 13.7087 26.5625 14.417 25ZM33.167 29.7083L32.542 30.7708C33.1878 30.6666 33.8128 30.5625 34.3753 30.4375C34.2295 29.8541 34.0003 29.25 33.7712 28.6458L33.167 29.7083ZM27.1462 38.125C30.4587 41.25 33.3337 42.4583 34.6253 41.6666C35.9587 40.9375 36.3545 37.875 35.292 33.4166C33.6878 33.75 32.0003 34 30.292 34.1666C29.292 35.5625 28.2295 36.8958 27.1462 38.125ZM16.8337 20.2916L17.4587 19.2291C16.8128 19.3333 16.1878 19.4375 15.6253 19.5625C15.7712 20.1458 16.0003 20.75 16.2295 21.3541L16.8337 20.2916ZM22.8545 11.875C19.542 8.74996 16.667 7.54163 15.3545 8.3333C14.042 9.06246 13.6462 12.125 14.7087 16.5833C16.361 16.2455 18.03 15.9951 19.7087 15.8333C20.7087 14.4375 21.7712 13.1041 22.8545 11.875Z" fill="white"/>
</svg>
