<svg width="50" height="50" viewBox="0 0 50 50" fill="none" xmlns="http://www.w3.org/2000/svg">
<path d="M5.41699 22.0625L17.4587 9.99996L20.9795 13.5416C20.4795 15.3125 21.292 17.25 22.917 18.1875V29.7291C21.667 30.4375 20.8337 31.7916 20.8337 33.3333C20.8337 34.4384 21.2726 35.4982 22.054 36.2796C22.8354 37.061 23.8953 37.5 25.0003 37.5C26.1054 37.5 27.1652 37.061 27.9466 36.2796C28.728 35.4982 29.167 34.4384 29.167 33.3333C29.167 31.7916 28.3337 30.4375 27.0837 29.7291V19.6041L31.3962 23.9583C31.2503 24.2708 31.2503 24.625 31.2503 25C31.2503 26.105 31.6893 27.1648 32.4707 27.9462C33.2521 28.7276 34.3119 29.1666 35.417 29.1666C36.5221 29.1666 37.5819 28.7276 38.3633 27.9462C39.1447 27.1648 39.5837 26.105 39.5837 25C39.5837 23.8949 39.1447 22.8351 38.3633 22.0537C37.5819 21.2723 36.5221 20.8333 35.417 20.8333C35.042 20.8333 34.6878 20.8333 34.3753 20.9791L29.0212 15.625C29.2798 14.66 29.1796 13.634 28.7389 12.7374C28.2983 11.8409 27.5473 11.1347 26.6253 10.75C25.7295 10.4166 24.792 10.3333 23.9587 10.5625L20.417 7.04163L22.0628 5.41663C23.6878 3.77079 26.3128 3.77079 27.9378 5.41663L44.5837 22.0625C46.2295 23.6875 46.2295 26.3125 44.5837 27.9375L27.9378 44.5833C26.3128 46.2291 23.6878 46.2291 22.0628 44.5833L5.41699 27.9375C3.77116 26.3125 3.77116 23.6875 5.41699 22.0625Z" fill="white"/>
</svg>
