<svg width="50" height="50" viewBox="0 0 50 50" fill="none" xmlns="http://www.w3.org/2000/svg">
<path d="M25.0003 12.5C19.4378 12.5 15.9795 15.2708 14.5837 20.8333C16.667 18.0625 19.1045 17.0208 21.8753 17.7083C23.4587 18.1042 24.6045 19.25 25.8545 20.5208C27.8962 22.6042 30.2087 25 35.417 25C40.9795 25 44.4378 22.2292 45.8337 16.6667C43.7503 19.4375 41.3128 20.4792 38.542 19.7917C36.9587 19.3958 35.8337 18.25 34.5628 16.9792C32.5212 14.8958 30.2087 12.5 25.0003 12.5ZM14.5837 25C9.02116 25 5.56283 27.7708 4.16699 33.3333C6.25033 30.5625 8.68783 29.5208 11.4587 30.2083C13.042 30.6042 14.167 31.75 15.4378 33.0208C17.4795 35.1042 19.792 37.5 25.0003 37.5C30.5628 37.5 34.0212 34.7292 35.417 29.1667C33.3337 31.9375 30.8962 32.9792 28.1253 32.2917C26.542 31.8958 25.417 30.75 24.1462 29.4792C22.1045 27.3958 19.792 25 14.5837 25Z" fill="white"/>
</svg>
