<svg width="50" height="50" viewBox="0 0 50 50" fill="none" xmlns="http://www.w3.org/2000/svg">
<path d="M32.5792 9.5125L32.6959 9.57917C31.1167 10.4125 26.6042 13.1 26.6042 16.5208C26.6042 17.675 27.2646 18.7875 27.8834 19.8333C28.4292 20.7542 28.9438 21.6208 28.9438 22.4125C28.9438 24.4063 27 25.9542 25.9021 26.6667L25.6938 26.5458C26.1084 26.0396 26.6188 25.1917 26.6188 24.2875C26.6188 23.0417 25.9792 22.0458 25.3313 21.0354C24.6604 19.9917 23.9813 18.9313 23.9813 17.5563C23.9813 12.7813 30.4709 10.2188 32.5792 9.5125ZM24.0479 12.0375C26.6584 9.70417 29.5104 7.15417 29.5104 3.31875C29.5104 1.58333 28.8 0.475 28.4479 0.03125L28.3334 0.0958333C28.4167 0.441667 28.5417 1.07917 28.5417 1.9125C28.5417 5.40417 25.5792 7.85 22.7125 10.2208C20.0229 12.4458 17.4167 14.6 17.4167 17.4833C17.4167 21.6188 21.4959 24.1625 23.2188 25.2375L23.35 25.3208L23.4542 25.2583C23.3611 25.1556 23.2625 25.05 23.1584 24.9417C21.8334 23.5313 19.8209 21.3917 19.8209 18.1187C19.8209 15.8208 21.8479 14.0063 24.0479 12.0375ZM23.1084 32.6792C26.7834 32.6792 29.3542 32.1521 30.4959 31.8292L32.2292 32.8292C30.5771 33.6688 26.9146 34.3083 23.1 34.3083C18.6146 34.3083 13.7104 33.3458 13.6959 32.0625C13.6854 31.3542 15.2896 30.8833 17.0188 30.5792L17.1229 30.6396C17.1229 30.6396 16.5375 30.85 16.5438 31.3333C16.5521 32.0625 19.5021 32.6792 23.1063 32.6792M15.7542 37.2021C15.7542 36.3542 17.5021 35.9521 18.3021 35.7917L18.4063 35.8542C18.2688 35.9563 18.1938 36.0958 18.1938 36.2146C18.1938 36.7708 20.1313 37.2792 23.1021 37.2792C25.7646 37.2792 27.2438 36.9521 28.1229 36.7417L30.1854 37.9354C30.0917 38.0021 28.0604 39.2792 23.0979 39.2792C19.4917 39.2792 15.7542 38.3792 15.7542 37.2021ZM33.5229 33.6021C35.9813 32.2 38.4417 30.5417 38.5813 27.8792C38.6729 26.1313 37.0667 24.85 35.3104 25.1917L35.4042 24.9583V24.9542C35.8459 24.8208 36.3917 24.7125 37.0021 24.7125C38.9667 24.7125 40.4729 25.8896 40.6646 27.5375C41.0521 30.8417 36.3688 32.9917 33.7459 33.7313L33.5229 33.6021ZM37.6375 39.8271C37.6584 42.0979 29.9334 43.4479 23.0292 43.5083C17.0688 43.5604 7.45836 42.4354 7.43753 40.1646C7.42503 38.5958 11.6042 37.5104 13.875 37.1979L14.1146 37.3333C14.1146 37.3333 10.7292 38.1188 10.7396 39.5458C10.7521 40.9688 17.875 42.2 23.0188 42.1563C30.9875 42.0854 36.3813 40.7875 37.0188 39.0271L37.1313 38.9625C37.3646 39.1333 37.6313 39.4146 37.6375 39.8271ZM13.3959 44.4521C16.3437 44.923 19.3253 45.1495 22.3104 45.1292C35.2438 45.0167 38.8938 41.8375 39.4563 41.1458L39.5542 41.2042C39.4209 43.7208 32.5813 45.8125 24.1459 45.8854C19.8521 45.9229 15.9438 45.4271 13.1354 44.6042L13.3959 44.4521ZM18.8167 25.1125C16.5688 25.2854 11.7417 26 11.7417 27.2708C11.7417 28.2333 16.1667 29.5896 23.1 29.5896C29.3375 29.5896 33.275 28.4125 34.1938 27.9646L32.8542 27.1833C31.8959 27.4438 28.3354 28.2375 23.1 28.2375C20.0167 28.2375 14.7042 27.6688 14.7042 26.8C14.7042 26.0208 18.0188 25.4208 18.9709 25.2479L19.0313 25.2375L18.8167 25.1125Z" fill="white"/>
</svg>
