<svg width="50" height="50" viewBox="0 0 50 50" fill="none" xmlns="http://www.w3.org/2000/svg">
<g clip-path="url(#clip0_231_28)">
<path d="M45.5288 2.95001C44.8336 4.61477 43.9351 6.18713 42.8538 7.63126C40.5371 5.23169 37.7625 3.32137 34.6943 2.0134C31.626 0.705439 28.3265 0.0264322 24.9912 0.0165881C21.6558 0.00674394 18.3523 0.666263 15.2764 1.95609C12.2005 3.24592 9.41469 5.13984 7.08391 7.52569C4.75312 9.91155 2.92477 12.7408 1.70711 15.846C0.489445 18.9512 -0.0927649 22.2691 -0.00504833 25.6034C0.0826682 28.9376 0.838527 32.2204 2.21777 35.2572C3.59702 38.2941 5.5716 41.0233 8.02461 43.2833L8.94961 44.1063C12.4636 47.0704 16.7295 49.004 21.2748 49.693C25.8201 50.382 30.4674 49.7994 34.702 48.0097C38.9365 46.2201 42.5931 43.2933 45.2666 39.5534C47.9402 35.8136 49.5264 31.4067 49.8496 26.8208C50.5704 20.5438 48.6663 12.5188 45.5288 2.95001ZM11.6246 43.4896C11.3602 43.8143 11.0055 44.0533 10.6052 44.1765C10.205 44.2997 9.77731 44.3016 9.37605 44.1819C8.97479 44.0621 8.61801 43.8262 8.35074 43.5039C8.08348 43.1815 7.91774 42.7872 7.87443 42.3707C7.83112 41.9542 7.9122 41.5342 8.10743 41.1638C8.30265 40.7933 8.60327 40.489 8.97131 40.2893C9.33936 40.0896 9.75833 40.0034 10.1753 40.0417C10.5923 40.0799 10.9886 40.2409 11.3142 40.5042C11.7408 40.8654 12.0112 41.3775 12.0691 41.9334C12.1269 42.4894 11.9677 43.0483 11.6246 43.4896ZM45.3725 36.0271C39.2496 44.2063 26.0809 41.4292 17.6934 41.8396C17.6934 41.8396 16.2017 41.9438 14.71 42.1479C14.71 42.1479 15.2767 41.8917 15.9975 41.6333C21.9142 39.5771 24.6913 39.1646 28.2913 37.3125C35.0309 33.8667 41.7704 26.3042 43.1079 18.4833C40.535 25.9958 32.7163 32.4771 25.6163 35.1C20.7288 36.9021 11.9329 38.65 11.9329 38.65L11.5725 38.4438C5.60378 35.5125 5.39961 22.5479 16.3059 18.3813C21.0892 16.5271 25.6184 17.5583 30.8121 16.3229C36.3184 15.0375 42.6975 10.9208 45.2704 5.51876C48.1496 14.2146 51.6475 27.6917 45.3725 36.0271Z" fill="white"/>
</g>
<defs>
<clipPath id="clip0_231_28">
<rect width="50" height="50" fill="white"/>
</clipPath>
</defs>
</svg>
