<svg width="50" height="50" viewBox="0 0 50 50" fill="none" xmlns="http://www.w3.org/2000/svg">
<path fill-rule="evenodd" clip-rule="evenodd" d="M18.0563 19.6187C17.3496 19.6187 16.6499 19.7579 15.997 20.0283C15.3441 20.2988 14.7509 20.6951 14.2512 21.1948C13.7515 21.6945 13.3551 22.2878 13.0847 22.9406C12.8143 23.5935 12.6751 24.2933 12.6751 25C12.6751 25.7066 12.8143 26.4064 13.0847 27.0593C13.3551 27.7122 13.7515 28.3054 14.2512 28.8051C14.7509 29.3048 15.3441 29.7012 15.997 29.9716C16.6499 30.242 17.3496 30.3812 18.0563 30.3812H23.4376V19.6187H18.0563ZM23.4376 16.4937H18.0563C16.6288 16.4937 15.2598 15.9266 14.2505 14.9173C13.2411 13.9079 12.674 12.5389 12.674 11.1114C12.674 9.68395 13.2411 8.31494 14.2505 7.30556C15.2598 6.29619 16.6288 5.72913 18.0563 5.72913H23.4376V16.4937ZM26.5626 5.72913V16.4937H31.9438C33.353 16.466 34.695 15.8867 35.6818 14.8804C36.6685 13.874 37.2213 12.5208 37.2213 11.1114C37.2213 9.70201 36.6685 8.34881 35.6818 7.34245C34.695 6.3361 33.353 5.75685 31.9438 5.72913H26.5626ZM31.9438 19.6166C30.5313 19.6164 29.1753 20.1717 28.1686 21.1624C27.1618 22.1532 26.585 23.5001 26.5626 24.9125V25.0854C26.5798 26.1458 26.91 27.1775 27.5117 28.0508C28.1134 28.9242 28.9597 29.6003 29.9444 29.9942C30.9291 30.3881 32.0082 30.4823 33.0463 30.2648C34.0843 30.0474 35.0349 29.5281 35.7788 28.7722C36.5226 28.0162 37.0265 27.0573 37.2272 26.0159C37.4278 24.9745 37.3163 23.8971 36.9065 22.9189C36.4968 21.9407 35.8071 21.1053 34.9242 20.5178C34.0412 19.9303 33.0044 19.6168 31.9438 19.6166ZM18.0563 33.5062C16.9915 33.5058 15.9505 33.8212 15.0649 34.4125C14.1794 35.0037 13.4891 35.8443 13.0813 36.828C12.6735 37.8116 12.5666 38.8941 12.7741 39.9385C12.9816 40.9829 13.4941 41.9423 14.2469 42.6954C14.9997 43.4485 15.9589 43.9614 17.0032 44.1693C18.0476 44.3772 19.1301 44.2707 20.1139 43.8633C21.0977 43.4559 21.9385 42.7659 22.5302 41.8806C23.1218 40.9953 23.4376 39.9544 23.4376 38.8895V33.5062H18.0563Z" fill="white"/>
</svg>
